# xmcd CD database file
#
# Track frame offsets:
#	150
#	11578
#	24748
#	40723
#	60558
#	83828
#	97925
#	116565
#	128935
#	140238
#
# Disc length: 2195 seconds
#
# Revision: 1
# Processed by: cddbd v1.4PL0 Copyright (c) Steve Scherf et al.
# Submitted via: CDex 1.50beta9
#
DISCID=8008910a
DTITLE=Chris Platta - Fresh Horses
DYEAR=1993
DGENRE=Country
TTITLE0=Greasy Chicken
TTITLE1=Can't Let It Go
TTITLE2=Fresh Horses
TTITLE3=Down By The River
TTITLE4=Hurricane
TTITLE5=Don't Break My Heart That Way
TTITLE6=Be By You
TTITLE7=Cold Cruel Wind
TTITLE8=Crushed Velvet Elvis
TTITLE9=Sleep Will Know (That I'm With You)
EXTD=YEAR: 1993
EXTT0=
EXTT1=
EXTT2=
EXTT3=
EXTT4=
EXTT5=
EXTT6=
EXTT7=
EXTT8=
EXTT9=
PLAYORDER=
